<svg xmlns="http://www.w3.org/2000/svg" viewBox="0 0 1060 216" role="img" aria-label="Agent Identity Launcher"><title>Agent Identity Launcher</title><rect x="10" y="0" width="50.4" height="10.4" fill="#5555F6"/><rect x="90" y="0" width="60.4" height="10.4" fill="#5555F6"/><rect x="170" y="0" width="70.4" height="10.4" fill="#5555F6"/><rect x="250" y="0" width="30.4" height="10.4" fill="#5555F6"/><rect x="320" y="0" width="20.4" height="10.4" fill="#5555F6"/><rect x="350" y="0" width="80.4" height="10.4" fill="#5555F6"/><rect x="480" y="0" width="20.4" height="10.4" fill="#5555F6"/><rect x="510" y="0" width="60.4" height="10.4" fill="#5555F6"/><rect x="590" y="0" width="70.4" height="10.4" fill="#5555F6"/><rect x="670" y="0" width="30.4" height="10.4" fill="#5555F6"/><rect x="740" y="0" width="20.4" height="10.4" fill="#5555F6"/><rect x="770" y="0" width="80.4" height="10.4" fill="#5555F6"/><rect x="860" y="0" width="20.4" height="10.4" fill="#5555F6"/><rect x="890" y="0" width="80.4" height="10.4" fill="#5555F6"/><rect x="980" y="0" width="20.4" height="10.4" fill="#5555F6"/><rect x="1040" y="0" width="20.4" height="10.4" fill="#5555F6"/><rect x="10" y="10" width="50.4" height="10.4" fill="#5555F6"/><rect x="90" y="10" width="60.4" height="10.4" fill="#5555F6"/><rect x="170" y="10" width="70.4" height="10.4" fill="#5555F6"/><rect x="250" y="10" width="30.4" height="10.4" fill="#5555F6"/><rect x="320" y="10" width="20.4" height="10.4" fill="#5555F6"/><rect x="350" y="10" width="80.4" height="10.4" fill="#5555F6"/><rect x="480" y="10" width="20.4" height="10.4" fill="#5555F6"/><rect x="510" y="10" width="60.4" height="10.4" fill="#5555F6"/><rect x="590" y="10" width="70.4" height="10.4" fill="#5555F6"/><rect x="670" y="10" width="30.4" height="10.4" fill="#5555F6"/><rect x="740" y="10" width="20.4" height="10.4" fill="#5555F6"/><rect x="770" y="10" width="80.4" height="10.4" fill="#5555F6"/><rect x="860" y="10" width="20.4" height="10.4" fill="#5555F6"/><rect x="890" y="10" width="80.4" height="10.4" fill="#5555F6"/><rect x="980" y="10" width="20.4" height="10.4" fill="#5555F6"/><rect x="1040" y="10" width="20.4" height="10.4" fill="#5555F6"/><rect x="0" y="20" width="20.4" height="10.4" fill="#627EF8"/><rect x="50" y="20" width="20.4" height="10.4" fill="#627EF8"/><rect x="80" y="20" width="20.4" height="10.4" fill="#627EF8"/><rect x="170" y="20" width="20.4" height="10.4" fill="#627EF8"/><rect x="250" y="20" width="40.4" height="10.4" fill="#627EF8"/><rect x="320" y="20" width="20.4" height="10.4" fill="#627EF8"/><rect x="380" y="20" width="20.4" height="10.4" fill="#627EF8"/><rect x="480" y="20" width="20.4" height="10.4" fill="#627EF8"/><rect x="510" y="20" width="20.4" height="10.4" fill="#627EF8"/><rect x="560" y="20" width="20.4" height="10.4" fill="#627EF8"/><rect x="590" y="20" width="20.4" height="10.4" fill="#627EF8"/><rect x="670" y="20" width="40.4" height="10.4" fill="#627EF8"/><rect x="740" y="20" width="20.4" height="10.4" fill="#627EF8"/><rect x="800" y="20" width="20.4" height="10.4" fill="#627EF8"/><rect x="860" y="20" width="20.4" height="10.4" fill="#627EF8"/><rect x="920" y="20" width="20.4" height="10.4" fill="#627EF8"/><rect x="990" y="20" width="20.4" height="10.4" fill="#627EF8"/><rect x="1030" y="20" width="20.4" height="10.4" fill="#627EF8"/><rect x="0" y="30" width="20.4" height="10.4" fill="#627EF8"/><rect x="50" y="30" width="20.4" height="10.4" fill="#627EF8"/><rect x="80" y="30" width="20.4" height="10.4" fill="#627EF8"/><rect x="170" y="30" width="20.4" height="10.4" fill="#627EF8"/><rect x="250" y="30" width="40.4" height="10.4" fill="#627EF8"/><rect x="320" y="30" width="20.4" height="10.4" fill="#627EF8"/><rect x="380" y="30" width="20.4" height="10.4" fill="#627EF8"/><rect x="480" y="30" width="20.4" height="10.4" fill="#627EF8"/><rect x="510" y="30" width="20.4" height="10.4" fill="#627EF8"/><rect x="560" y="30" width="20.4" height="10.4" fill="#627EF8"/><rect x="590" y="30" width="20.4" height="10.4" fill="#627EF8"/><rect x="670" y="30" width="40.4" height="10.4" fill="#627EF8"/><rect x="740" y="30" width="20.4" height="10.4" fill="#627EF8"/><rect x="800" y="30" width="20.4" height="10.4" fill="#627EF8"/><rect x="860" y="30" width="20.4" height="10.4" fill="#627EF8"/><rect x="920" y="30" width="20.4" height="10.4" fill="#627EF8"/><rect x="990" y="30" width="20.4" height="10.4" fill="#627EF8"/><rect x="1030" y="30" width="20.4" height="10.4" fill="#627EF8"/><rect x="0" y="40" width="70.4" height="10.4" fill="#6FA8FA"/><rect x="80" y="40" width="20.4" height="10.4" fill="#6FA8FA"/><rect x="130" y="40" width="30.4" height="10.4" fill="#6FA8FA"/><rect x="170" y="40" width="50.4" height="10.4" fill="#6FA8FA"/><rect x="250" y="40" width="20.4" height="10.4" fill="#6FA8FA"/><rect x="280" y="40" width="20.4" height="10.4" fill="#6FA8FA"/><rect x="320" y="40" width="20.4" height="10.4" fill="#6FA8FA"/><rect x="380" y="40" width="20.4" height="10.4" fill="#6FA8FA"/><rect x="480" y="40" width="20.4" height="10.4" fill="#6FA8FA"/><rect x="510" y="40" width="20.4" height="10.4" fill="#6FA8FA"/><rect x="560" y="40" width="20.4" height="10.4" fill="#6FA8FA"/><rect x="590" y="40" width="50.4" height="10.4" fill="#6FA8FA"/><rect x="670" y="40" width="20.4" height="10.4" fill="#6FA8FA"/><rect x="700" y="40" width="20.4" height="10.4" fill="#6FA8FA"/><rect x="740" y="40" width="20.4" height="10.4" fill="#6FA8FA"/><rect x="800" y="40" width="20.4" height="10.4" fill="#6FA8FA"/><rect x="860" y="40" width="20.4" height="10.4" fill="#6FA8FA"/><rect x="920" y="40" width="20.4" height="10.4" fill="#6FA8FA"/><rect x="1000" y="40" width="40.4" height="10.4" fill="#6FA8FA"/><rect x="0" y="50" width="70.4" height="10.4" fill="#6FA8FA"/><rect x="80" y="50" width="20.4" height="10.4" fill="#6FA8FA"/><rect x="130" y="50" width="30.4" height="10.4" fill="#6FA8FA"/><rect x="170" y="50" width="50.4" height="10.4" fill="#6FA8FA"/><rect x="250" y="50" width="20.4" height="10.4" fill="#6FA8FA"/><rect x="280" y="50" width="20.4" height="10.4" fill="#6FA8FA"/><rect x="320" y="50" width="20.4" height="10.4" fill="#6FA8FA"/><rect x="380" y="50" width="20.4" height="10.4" fill="#6FA8FA"/><rect x="480" y="50" width="20.4" height="10.4" fill="#6FA8FA"/><rect x="510" y="50" width="20.4" height="10.4" fill="#6FA8FA"/><rect x="560" y="50" width="20.4" height="10.4" fill="#6FA8FA"/><rect x="590" y="50" width="50.4" height="10.4" fill="#6FA8FA"/><rect x="670" y="50" width="20.4" height="10.4" fill="#6FA8FA"/><rect x="700" y="50" width="20.4" height="10.4" fill="#6FA8FA"/><rect x="740" y="50" width="20.4" height="10.4" fill="#6FA8FA"/><rect x="800" y="50" width="20.4" height="10.4" fill="#6FA8FA"/><rect x="860" y="50" width="20.4" height="10.4" fill="#6FA8FA"/><rect x="920" y="50" width="20.4" height="10.4" fill="#6FA8FA"/><rect x="1000" y="50" width="40.4" height="10.4" fill="#6FA8FA"/><rect x="0" y="60" width="20.4" height="10.4" fill="#7CD2FB"/><rect x="50" y="60" width="20.4" height="10.4" fill="#7CD2FB"/><rect x="80" y="60" width="20.4" height="10.4" fill="#7CD2FB"/><rect x="140" y="60" width="20.4" height="10.4" fill="#7CD2FB"/><rect x="170" y="60" width="20.4" height="10.4" fill="#7CD2FB"/><rect x="250" y="60" width="20.4" height="10.4" fill="#7CD2FB"/><rect x="290" y="60" width="20.4" height="10.4" fill="#7CD2FB"/><rect x="320" y="60" width="20.4" height="10.4" fill="#7CD2FB"/><rect x="380" y="60" width="20.4" height="10.4" fill="#7CD2FB"/><rect x="480" y="60" width="20.4" height="10.4" fill="#7CD2FB"/><rect x="510" y="60" width="20.4" height="10.4" fill="#7CD2FB"/><rect x="560" y="60" width="20.4" height="10.4" fill="#7CD2FB"/><rect x="590" y="60" width="20.4" height="10.4" fill="#7CD2FB"/><rect x="670" y="60" width="20.4" height="10.4" fill="#7CD2FB"/><rect x="710" y="60" width="20.4" height="10.4" fill="#7CD2FB"/><rect x="740" y="60" width="20.4" height="10.4" fill="#7CD2FB"/><rect x="800" y="60" width="20.4" height="10.4" fill="#7CD2FB"/><rect x="860" y="60" width="20.4" height="10.4" fill="#7CD2FB"/><rect x="920" y="60" width="20.4" height="10.4" fill="#7CD2FB"/><rect x="1010" y="60" width="20.4" height="10.4" fill="#7CD2FB"/><rect x="0" y="70" width="20.4" height="10.4" fill="#7CD2FB"/><rect x="50" y="70" width="20.4" height="10.4" fill="#7CD2FB"/><rect x="80" y="70" width="20.4" height="10.4" fill="#7CD2FB"/><rect x="140" y="70" width="20.4" height="10.4" fill="#7CD2FB"/><rect x="170" y="70" width="20.4" height="10.4" fill="#7CD2FB"/><rect x="250" y="70" width="20.4" height="10.4" fill="#7CD2FB"/><rect x="290" y="70" width="20.4" height="10.4" fill="#7CD2FB"/><rect x="320" y="70" width="20.4" height="10.4" fill="#7CD2FB"/><rect x="380" y="70" width="20.4" height="10.4" fill="#7CD2FB"/><rect x="480" y="70" width="20.4" height="10.4" fill="#7CD2FB"/><rect x="510" y="70" width="20.4" height="10.4" fill="#7CD2FB"/><rect x="560" y="70" width="20.4" height="10.4" fill="#7CD2FB"/><rect x="590" y="70" width="20.4" height="10.4" fill="#7CD2FB"/><rect x="670" y="70" width="20.4" height="10.4" fill="#7CD2FB"/><rect x="710" y="70" width="20.4" height="10.4" fill="#7CD2FB"/><rect x="740" y="70" width="20.4" height="10.4" fill="#7CD2FB"/><rect x="800" y="70" width="20.4" height="10.4" fill="#7CD2FB"/><rect x="860" y="70" width="20.4" height="10.4" fill="#7CD2FB"/><rect x="920" y="70" width="20.4" height="10.4" fill="#7CD2FB"/><rect x="1010" y="70" width="20.4" height="10.4" fill="#7CD2FB"/><rect x="0" y="80" width="20.4" height="10.4" fill="#89FBFD"/><rect x="50" y="80" width="20.4" height="10.4" fill="#89FBFD"/><rect x="90" y="80" width="60.4" height="10.4" fill="#89FBFD"/><rect x="170" y="80" width="70.4" height="10.4" fill="#89FBFD"/><rect x="250" y="80" width="20.4" height="10.4" fill="#89FBFD"/><rect x="300" y="80" width="40.4" height="10.4" fill="#89FBFD"/><rect x="380" y="80" width="20.4" height="10.4" fill="#89FBFD"/><rect x="480" y="80" width="20.4" height="10.4" fill="#89FBFD"/><rect x="510" y="80" width="60.4" height="10.4" fill="#89FBFD"/><rect x="590" y="80" width="70.4" height="10.4" fill="#89FBFD"/><rect x="670" y="80" width="20.4" height="10.4" fill="#89FBFD"/><rect x="720" y="80" width="40.4" height="10.4" fill="#89FBFD"/><rect x="800" y="80" width="20.4" height="10.4" fill="#89FBFD"/><rect x="860" y="80" width="20.4" height="10.4" fill="#89FBFD"/><rect x="920" y="80" width="20.4" height="10.4" fill="#89FBFD"/><rect x="1010" y="80" width="20.4" height="10.4" fill="#89FBFD"/><rect x="0" y="90" width="20.4" height="10.4" fill="#89FBFD"/><rect x="50" y="90" width="20.4" height="10.4" fill="#89FBFD"/><rect x="90" y="90" width="60.4" height="10.4" fill="#89FBFD"/><rect x="170" y="90" width="70.4" height="10.4" fill="#89FBFD"/><rect x="250" y="90" width="20.4" height="10.4" fill="#89FBFD"/><rect x="300" y="90" width="40.4" height="10.4" fill="#89FBFD"/><rect x="380" y="90" width="20.4" height="10.4" fill="#89FBFD"/><rect x="480" y="90" width="20.4" height="10.4" fill="#89FBFD"/><rect x="510" y="90" width="60.4" height="10.4" fill="#89FBFD"/><rect x="590" y="90" width="70.4" height="10.4" fill="#89FBFD"/><rect x="670" y="90" width="20.4" height="10.4" fill="#89FBFD"/><rect x="720" y="90" width="40.4" height="10.4" fill="#89FBFD"/><rect x="800" y="90" width="20.4" height="10.4" fill="#89FBFD"/><rect x="860" y="90" width="20.4" height="10.4" fill="#89FBFD"/><rect x="920" y="90" width="20.4" height="10.4" fill="#89FBFD"/><rect x="1010" y="90" width="20.4" height="10.4" fill="#89FBFD"/><rect x="200" y="116" width="20.4" height="10.4" fill="#5555F6"/><rect x="290" y="116" width="50.4" height="10.4" fill="#5555F6"/><rect x="360" y="116" width="20.4" height="10.4" fill="#5555F6"/><rect x="420" y="116" width="20.4" height="10.4" fill="#5555F6"/><rect x="450" y="116" width="30.4" height="10.4" fill="#5555F6"/><rect x="520" y="116" width="20.4" height="10.4" fill="#5555F6"/><rect x="560" y="116" width="60.4" height="10.4" fill="#5555F6"/><rect x="630" y="116" width="20.4" height="10.4" fill="#5555F6"/><rect x="680" y="116" width="20.4" height="10.4" fill="#5555F6"/><rect x="710" y="116" width="70.4" height="10.4" fill="#5555F6"/><rect x="790" y="116" width="60.4" height="10.4" fill="#5555F6"/><rect x="200" y="126" width="20.4" height="10.4" fill="#5555F6"/><rect x="290" y="126" width="50.4" height="10.4" fill="#5555F6"/><rect x="360" y="126" width="20.4" height="10.4" fill="#5555F6"/><rect x="420" y="126" width="20.4" height="10.4" fill="#5555F6"/><rect x="450" y="126" width="30.4" height="10.4" fill="#5555F6"/><rect x="520" y="126" width="20.4" height="10.4" fill="#5555F6"/><rect x="560" y="126" width="60.4" height="10.4" fill="#5555F6"/><rect x="630" y="126" width="20.4" height="10.4" fill="#5555F6"/><rect x="680" y="126" width="20.4" height="10.4" fill="#5555F6"/><rect x="710" y="126" width="70.4" height="10.4" fill="#5555F6"/><rect x="790" y="126" width="60.4" height="10.4" fill="#5555F6"/><rect x="200" y="136" width="20.4" height="10.4" fill="#627EF8"/><rect x="280" y="136" width="20.4" height="10.4" fill="#627EF8"/><rect x="330" y="136" width="20.4" height="10.4" fill="#627EF8"/><rect x="360" y="136" width="20.4" height="10.4" fill="#627EF8"/><rect x="420" y="136" width="20.4" height="10.4" fill="#627EF8"/><rect x="450" y="136" width="40.4" height="10.4" fill="#627EF8"/><rect x="520" y="136" width="20.4" height="10.4" fill="#627EF8"/><rect x="550" y="136" width="20.4" height="10.4" fill="#627EF8"/><rect x="630" y="136" width="20.4" height="10.4" fill="#627EF8"/><rect x="680" y="136" width="20.4" height="10.4" fill="#627EF8"/><rect x="710" y="136" width="20.4" height="10.4" fill="#627EF8"/><rect x="790" y="136" width="20.4" height="10.4" fill="#627EF8"/><rect x="840" y="136" width="20.4" height="10.4" fill="#627EF8"/><rect x="200" y="146" width="20.4" height="10.4" fill="#627EF8"/><rect x="280" y="146" width="20.4" height="10.4" fill="#627EF8"/><rect x="330" y="146" width="20.4" height="10.4" fill="#627EF8"/><rect x="360" y="146" width="20.4" height="10.4" fill="#627EF8"/><rect x="420" y="146" width="20.4" height="10.4" fill="#627EF8"/><rect x="450" y="146" width="40.4" height="10.4" fill="#627EF8"/><rect x="520" y="146" width="20.4" height="10.4" fill="#627EF8"/><rect x="550" y="146" width="20.4" height="10.4" fill="#627EF8"/><rect x="630" y="146" width="20.4" height="10.4" fill="#627EF8"/><rect x="680" y="146" width="20.4" height="10.4" fill="#627EF8"/><rect x="710" y="146" width="20.4" height="10.4" fill="#627EF8"/><rect x="790" y="146" width="20.4" height="10.4" fill="#627EF8"/><rect x="840" y="146" width="20.4" height="10.4" fill="#627EF8"/><rect x="200" y="156" width="20.4" height="10.4" fill="#6FA8FA"/><rect x="280" y="156" width="70.4" height="10.4" fill="#6FA8FA"/><rect x="360" y="156" width="20.4" height="10.4" fill="#6FA8FA"/><rect x="420" y="156" width="20.4" height="10.4" fill="#6FA8FA"/><rect x="450" y="156" width="20.4" height="10.4" fill="#6FA8FA"/><rect x="480" y="156" width="20.4" height="10.4" fill="#6FA8FA"/><rect x="520" y="156" width="20.4" height="10.4" fill="#6FA8FA"/><rect x="550" y="156" width="20.4" height="10.4" fill="#6FA8FA"/><rect x="630" y="156" width="70.4" height="10.4" fill="#6FA8FA"/><rect x="710" y="156" width="50.4" height="10.4" fill="#6FA8FA"/><rect x="790" y="156" width="60.4" height="10.4" fill="#6FA8FA"/><rect x="200" y="166" width="20.4" height="10.4" fill="#6FA8FA"/><rect x="280" y="166" width="70.4" height="10.4" fill="#6FA8FA"/><rect x="360" y="166" width="20.4" height="10.4" fill="#6FA8FA"/><rect x="420" y="166" width="20.4" height="10.4" fill="#6FA8FA"/><rect x="450" y="166" width="20.4" height="10.4" fill="#6FA8FA"/><rect x="480" y="166" width="20.4" height="10.4" fill="#6FA8FA"/><rect x="520" y="166" width="20.4" height="10.4" fill="#6FA8FA"/><rect x="550" y="166" width="20.4" height="10.4" fill="#6FA8FA"/><rect x="630" y="166" width="70.4" height="10.4" fill="#6FA8FA"/><rect x="710" y="166" width="50.4" height="10.4" fill="#6FA8FA"/><rect x="790" y="166" width="60.4" height="10.4" fill="#6FA8FA"/><rect x="200" y="176" width="20.4" height="10.4" fill="#7CD2FB"/><rect x="280" y="176" width="20.4" height="10.4" fill="#7CD2FB"/><rect x="330" y="176" width="20.4" height="10.4" fill="#7CD2FB"/><rect x="360" y="176" width="20.4" height="10.4" fill="#7CD2FB"/><rect x="420" y="176" width="20.4" height="10.4" fill="#7CD2FB"/><rect x="450" y="176" width="20.4" height="10.4" fill="#7CD2FB"/><rect x="490" y="176" width="20.4" height="10.4" fill="#7CD2FB"/><rect x="520" y="176" width="20.4" height="10.4" fill="#7CD2FB"/><rect x="550" y="176" width="20.4" height="10.4" fill="#7CD2FB"/><rect x="630" y="176" width="20.4" height="10.4" fill="#7CD2FB"/><rect x="680" y="176" width="20.4" height="10.4" fill="#7CD2FB"/><rect x="710" y="176" width="20.4" height="10.4" fill="#7CD2FB"/><rect x="790" y="176" width="20.4" height="10.4" fill="#7CD2FB"/><rect x="840" y="176" width="20.4" height="10.4" fill="#7CD2FB"/><rect x="200" y="186" width="20.4" height="10.4" fill="#7CD2FB"/><rect x="280" y="186" width="20.4" height="10.4" fill="#7CD2FB"/><rect x="330" y="186" width="20.4" height="10.4" fill="#7CD2FB"/><rect x="360" y="186" width="20.4" height="10.4" fill="#7CD2FB"/><rect x="420" y="186" width="20.4" height="10.4" fill="#7CD2FB"/><rect x="450" y="186" width="20.4" height="10.4" fill="#7CD2FB"/><rect x="490" y="186" width="20.4" height="10.4" fill="#7CD2FB"/><rect x="520" y="186" width="20.4" height="10.4" fill="#7CD2FB"/><rect x="550" y="186" width="20.4" height="10.4" fill="#7CD2FB"/><rect x="630" y="186" width="20.4" height="10.4" fill="#7CD2FB"/><rect x="680" y="186" width="20.4" height="10.4" fill="#7CD2FB"/><rect x="710" y="186" width="20.4" height="10.4" fill="#7CD2FB"/><rect x="790" y="186" width="20.4" height="10.4" fill="#7CD2FB"/><rect x="840" y="186" width="20.4" height="10.4" fill="#7CD2FB"/><rect x="200" y="196" width="70.4" height="10.4" fill="#89FBFD"/><rect x="280" y="196" width="20.4" height="10.4" fill="#89FBFD"/><rect x="330" y="196" width="20.4" height="10.4" fill="#89FBFD"/><rect x="370" y="196" width="60.4" height="10.4" fill="#89FBFD"/><rect x="450" y="196" width="20.4" height="10.4" fill="#89FBFD"/><rect x="500" y="196" width="40.4" height="10.4" fill="#89FBFD"/><rect x="560" y="196" width="60.4" height="10.4" fill="#89FBFD"/><rect x="630" y="196" width="20.4" height="10.4" fill="#89FBFD"/><rect x="680" y="196" width="20.4" height="10.4" fill="#89FBFD"/><rect x="710" y="196" width="70.4" height="10.4" fill="#89FBFD"/><rect x="790" y="196" width="20.4" height="10.4" fill="#89FBFD"/><rect x="840" y="196" width="20.4" height="10.4" fill="#89FBFD"/><rect x="200" y="206" width="70.4" height="10.4" fill="#89FBFD"/><rect x="280" y="206" width="20.4" height="10.4" fill="#89FBFD"/><rect x="330" y="206" width="20.4" height="10.4" fill="#89FBFD"/><rect x="370" y="206" width="60.4" height="10.4" fill="#89FBFD"/><rect x="450" y="206" width="20.4" height="10.4" fill="#89FBFD"/><rect x="500" y="206" width="40.4" height="10.4" fill="#89FBFD"/><rect x="560" y="206" width="60.4" height="10.4" fill="#89FBFD"/><rect x="630" y="206" width="20.4" height="10.4" fill="#89FBFD"/><rect x="680" y="206" width="20.4" height="10.4" fill="#89FBFD"/><rect x="710" y="206" width="70.4" height="10.4" fill="#89FBFD"/><rect x="790" y="206" width="20.4" height="10.4" fill="#89FBFD"/><rect x="840" y="206" width="20.4" height="10.4" fill="#89FBFD"/></svg>
